<?xml version="1.0" encoding="UTF-8"?>
<svg xmlns="http://www.w3.org/2000/svg" xmlns:xlink="http://www.w3.org/1999/xlink" width="300px" height="51px" viewBox="0 0 300 51" version="1.1">
<g id="surface1">
<path style=" stroke:none;fill-rule:nonzero;fill:rgb(94.901961%,94.901961%,94.901961%);fill-opacity:1;" d="M 37.5 15.476562 L 31.960938 22.597656 L 26.285156 15.476562 L 22.527344 15.476562 L 22.527344 37.765625 L 26.285156 37.765625 L 26.285156 20.75 L 31.960938 27.941406 L 37.5 20.75 L 37.503906 37.765625 L 41.265625 37.765625 L 41.265625 15.476562 Z M 37.5 15.476562 "/>
<path style=" stroke:none;fill-rule:nonzero;fill:rgb(94.901961%,94.901961%,94.901961%);fill-opacity:1;" d="M 45.03125 15.476562 L 48.785156 15.476562 L 48.785156 37.765625 L 45.03125 37.765625 Z M 45.03125 15.476562 "/>
<path style=" stroke:none;fill-rule:nonzero;fill:rgb(94.901961%,94.901961%,94.901961%);fill-opacity:1;" d="M 111.910156 19.25 L 111.910156 15.476562 L 93.414062 15.476562 L 93.414062 37.765625 L 97.171875 37.765625 L 111.910156 37.757812 L 111.910156 33.980469 L 97.171875 33.980469 L 97.171875 28.511719 L 108.148438 28.511719 L 108.148438 24.726562 L 97.171875 24.734375 L 97.171875 19.257812 Z M 111.910156 19.25 "/>
<path style=" stroke:none;fill-rule:nonzero;fill:rgb(94.901961%,94.901961%,94.901961%);fill-opacity:1;" d="M 175.648438 15.476562 L 179.402344 15.476562 L 179.402344 37.765625 L 175.648438 37.765625 Z M 175.648438 15.476562 "/>
<path style=" stroke:none;fill-rule:nonzero;fill:rgb(94.901961%,94.901961%,94.901961%);fill-opacity:1;" d="M 201.621094 15.476562 L 205.375 15.476562 L 205.375 37.765625 L 201.621094 37.765625 Z M 201.621094 15.476562 "/>
<path style=" stroke:none;fill-rule:nonzero;fill:rgb(94.901961%,94.901961%,94.901961%);fill-opacity:1;" d="M 251.269531 15.476562 L 255.027344 15.476562 L 255.027344 37.765625 L 251.269531 37.765625 Z M 251.269531 15.476562 "/>
<path style=" stroke:none;fill-rule:nonzero;fill:rgb(94.901961%,94.901961%,94.901961%);fill-opacity:1;" d="M 273.703125 37.757812 L 277.398438 37.757812 L 270.117188 16.84375 L 269.671875 15.5625 L 266.597656 15.5625 L 266.148438 16.84375 L 258.804688 37.765625 L 262.558594 37.765625 L 263.867188 34.136719 L 272.375 34.058594 Z M 265.214844 30.34375 L 268.117188 22.339844 L 270.988281 30.285156 Z M 265.214844 30.34375 "/>
<path style=" stroke:none;fill-rule:nonzero;fill:rgb(94.901961%,94.901961%,94.901961%);fill-opacity:1;" d="M 227.738281 19.257812 L 227.734375 15.5 L 209.121094 15.527344 L 209.128906 19.285156 L 216.855469 19.273438 L 216.855469 37.769531 L 220.609375 37.769531 L 220.609375 19.269531 Z M 227.738281 19.257812 "/>
<path style=" stroke:none;fill-rule:nonzero;fill:rgb(94.901961%,94.901961%,94.901961%);fill-opacity:1;" d="M 89.664062 28.480469 L 89.648438 24.707031 L 89.648438 15.476562 L 85.894531 15.476562 L 85.894531 24.71875 L 74.871094 24.757812 L 74.871094 15.476562 L 71.113281 15.476562 L 71.113281 37.765625 L 74.878906 37.765625 L 74.871094 28.535156 L 85.894531 28.492188 L 85.894531 37.765625 L 89.648438 37.765625 L 89.648438 28.480469 Z M 89.664062 28.480469 "/>
<path style=" stroke:none;fill-rule:nonzero;fill:rgb(94.901961%,94.901961%,94.901961%);fill-opacity:1;" d="M 130.386719 37.832031 L 130.367188 34.058594 L 119.425781 34.109375 L 119.425781 15.476562 L 115.671875 15.476562 L 115.671875 37.765625 L 115.777344 37.765625 L 115.785156 37.902344 Z M 130.386719 37.832031 "/>
<path style=" stroke:none;fill-rule:nonzero;fill:rgb(94.901961%,94.901961%,94.901961%);fill-opacity:1;" d="M 148.890625 37.832031 L 148.878906 34.058594 L 137.9375 34.109375 L 137.9375 15.476562 L 134.179688 15.476562 L 134.179688 37.765625 L 134.285156 37.765625 L 134.289062 37.902344 Z M 148.890625 37.832031 "/>
<path style=" stroke:none;fill-rule:nonzero;fill:rgb(94.901961%,94.901961%,94.901961%);fill-opacity:1;" d="M 0 24.746094 C 0.132812 24.710938 0.261719 24.652344 0.378906 24.589844 C 0.480469 24.523438 0.570312 24.496094 0.660156 24.433594 C 1.984375 23.769531 3.195312 22.914062 4.253906 21.875 C 5.09375 21.066406 5.511719 19.808594 5.511719 18.089844 L 5.511719 9.300781 C 5.511719 6.390625 6.347656 4.152344 8.015625 2.589844 C 9.6875 1.023438 12.003906 0.246094 14.96875 0.253906 C 15.652344 0.253906 16.34375 0.253906 17.03125 0.320312 C 17.617188 0.363281 18.199219 0.445312 18.777344 0.566406 L 18.777344 3.222656 L 15.171875 3.222656 C 13.511719 3.117188 11.871094 3.640625 10.574219 4.695312 C 9.472656 5.664062 8.921875 7.167969 8.921875 9.1875 L 8.921875 17.835938 C 9.027344 19.511719 8.601562 21.183594 7.714844 22.609375 C 6.730469 23.835938 5.308594 24.613281 3.746094 24.773438 L 3.746094 24.289062 C 5.296875 24.460938 6.710938 25.25 7.6875 26.476562 C 8.574219 27.902344 8.996094 29.574219 8.898438 31.253906 L 8.898438 41.539062 C 8.898438 43.519531 9.445312 45 10.546875 46.007812 C 11.835938 47.074219 13.476562 47.613281 15.148438 47.511719 L 18.753906 47.511719 L 18.753906 50.167969 C 18.257812 50.253906 17.671875 50.339844 17.007812 50.394531 C 16.347656 50.453125 15.632812 50.480469 14.945312 50.480469 C 11.980469 50.480469 9.664062 49.699219 7.996094 48.136719 C 6.324219 46.582031 5.488281 44.34375 5.488281 41.429688 L 5.488281 31 C 5.488281 29.230469 5.070312 27.953125 4.230469 27.171875 C 3.117188 26.347656 1.925781 25.628906 0.671875 25.03125 C 0.546875 24.976562 0.421875 24.917969 0.300781 24.851562 C 0.207031 24.796875 0.105469 24.761719 0 24.746094 Z M 0 24.746094 "/>
<path style=" stroke:none;fill-rule:nonzero;fill:rgb(94.901961%,94.901961%,94.901961%);fill-opacity:1;" d="M 299.902344 24.746094 C 299.769531 24.707031 299.640625 24.652344 299.519531 24.589844 C 299.417969 24.523438 299.332031 24.496094 299.238281 24.445312 C 297.921875 23.777344 296.710938 22.914062 295.648438 21.878906 C 294.820312 21.074219 294.394531 19.808594 294.394531 18.097656 L 294.394531 9.308594 C 294.394531 6.390625 293.566406 4.15625 291.902344 2.597656 C 290.234375 1.035156 287.921875 0.257812 284.957031 0.257812 C 284.273438 0.257812 283.582031 0.257812 282.898438 0.328125 C 282.3125 0.367188 281.726562 0.449219 281.152344 0.570312 L 281.152344 3.230469 L 284.761719 3.230469 C 286.417969 3.128906 288.054688 3.652344 289.347656 4.695312 C 290.445312 5.675781 290.992188 7.171875 290.992188 9.1875 L 290.992188 17.84375 C 290.890625 19.519531 291.316406 21.183594 292.203125 22.609375 C 293.171875 23.824219 294.585938 24.601562 296.125 24.773438 L 296.125 24.289062 C 294.582031 24.460938 293.171875 25.25 292.203125 26.476562 C 291.316406 27.902344 290.890625 29.574219 290.992188 31.253906 L 290.992188 41.539062 C 290.992188 43.519531 290.445312 45.003906 289.347656 46.003906 C 288.0625 47.070312 286.425781 47.601562 284.761719 47.503906 L 281.152344 47.503906 L 281.152344 50.160156 C 281.648438 50.25 282.234375 50.328125 282.898438 50.386719 C 283.554688 50.441406 284.273438 50.46875 284.957031 50.46875 C 287.921875 50.46875 290.234375 49.691406 291.902344 48.132812 C 293.566406 46.578125 294.394531 44.335938 294.394531 41.425781 L 294.394531 30.976562 C 294.394531 29.207031 294.8125 27.929688 295.648438 27.152344 C 296.769531 26.328125 297.957031 25.609375 299.199219 25.007812 C 299.367188 24.929688 299.449219 24.902344 299.582031 24.839844 C 299.679688 24.785156 299.792969 24.757812 299.902344 24.746094 Z M 299.902344 24.746094 "/>
<path style=" stroke:none;fill-rule:nonzero;fill:rgb(94.901961%,94.901961%,94.901961%);fill-opacity:1;" d="M 171.886719 33.988281 L 161.171875 33.988281 L 171.886719 19.195312 L 171.886719 15.476562 L 156.386719 15.476562 L 156.386719 19.25 L 167.121094 19.25 L 156.386719 33.988281 L 156.386719 37.765625 L 171.886719 37.765625 Z M 171.886719 33.988281 "/>
<path style=" stroke:none;fill-rule:nonzero;fill:rgb(94.901961%,94.901961%,94.901961%);fill-opacity:1;" d="M 190.765625 15.476562 L 183.203125 15.476562 L 183.203125 37.757812 L 186.964844 37.757812 L 186.964844 28.277344 L 190.800781 28.277344 C 194.792969 28.402344 197.917969 26.207031 197.917969 21.960938 C 197.917969 17.714844 194.972656 15.476562 190.765625 15.476562 Z M 190.632812 24.503906 L 186.914062 24.503906 L 186.914062 19.25 L 190.632812 19.25 C 193.195312 19.25 194.074219 20.097656 194.074219 21.972656 C 194.125 23.554688 193.195312 24.503906 190.632812 24.503906 Z M 190.632812 24.503906 "/>
<path style=" stroke:none;fill-rule:nonzero;fill:rgb(94.901961%,94.901961%,94.901961%);fill-opacity:1;" d="M 67.34375 34.15625 C 66.164062 34.445312 64.957031 34.589844 63.75 34.589844 C 59.371094 34.589844 55.816406 31.015625 55.816406 26.613281 C 55.816406 22.210938 59.371094 18.636719 63.75 18.636719 C 64.957031 18.636719 66.164062 18.78125 67.34375 19.058594 L 67.34375 16.066406 C 66.183594 15.679688 64.96875 15.476562 63.75 15.476562 C 57.628906 15.476562 52.671875 20.464844 52.671875 26.613281 C 52.671875 32.761719 57.628906 37.753906 63.75 37.753906 C 64.976562 37.753906 66.1875 37.542969 67.34375 37.144531 Z M 67.34375 34.15625 "/>
<path style=" stroke:none;fill-rule:nonzero;fill:rgb(94.901961%,94.901961%,94.901961%);fill-opacity:1;" d="M 243.28125 37.765625 L 247.53125 37.765625 L 241.953125 27.882812 C 244.539062 27.101562 246.179688 25.121094 246.179688 21.960938 C 246.179688 17.730469 243.269531 15.351562 239.0625 15.351562 L 235.222656 15.476562 L 231.503906 15.476562 L 231.503906 37.757812 L 235.269531 37.757812 L 235.269531 28.277344 L 237.878906 28.277344 Z M 235.222656 18.023438 L 237.460938 17.953125 C 240.03125 17.953125 241.804688 19.410156 241.804688 21.984375 C 241.804688 24.566406 240.03125 25.855469 237.460938 25.855469 L 235.222656 25.855469 Z M 235.222656 18.023438 "/>
</g>
</svg>
