<?xml version="1.0" encoding="UTF-8"?>
<svg xmlns="http://www.w3.org/2000/svg" xmlns:xlink="http://www.w3.org/1999/xlink" width="600px" height="101px" viewBox="0 0 602 101" version="1.1">
<g id="surface1">
<path style=" stroke:none;fill-rule:nonzero;fill:rgb(94.901961%,94.901961%,94.901961%);fill-opacity:1;" d="M 75.25 30.453125 L 64.136719 44.703125 L 52.742188 30.453125 L 45.207031 30.453125 L 45.207031 75.03125 L 52.742188 75.03125 L 52.742188 40.996094 L 64.136719 55.382812 L 75.25 40.996094 L 75.265625 75.03125 L 82.800781 75.03125 L 82.800781 30.453125 Z M 75.25 30.453125 "/>
<path style=" stroke:none;fill-rule:nonzero;fill:rgb(94.901961%,94.901961%,94.901961%);fill-opacity:1;" d="M 90.355469 30.453125 L 97.894531 30.453125 L 97.894531 75.03125 L 90.355469 75.03125 Z M 90.355469 30.453125 "/>
<path style=" stroke:none;fill-rule:nonzero;fill:rgb(94.901961%,94.901961%,94.901961%);fill-opacity:1;" d="M 224.5625 38.007812 L 224.5625 30.453125 L 187.449219 30.453125 L 187.449219 75.03125 L 194.988281 75.03125 L 224.5625 75.015625 L 224.5625 67.460938 L 194.988281 67.460938 L 194.988281 56.519531 L 217.023438 56.519531 L 217.023438 48.953125 L 194.988281 48.964844 L 194.988281 38.019531 Z M 224.5625 38.007812 "/>
<path style=" stroke:none;fill-rule:nonzero;fill:rgb(94.901961%,94.901961%,94.901961%);fill-opacity:1;" d="M 352.460938 30.453125 L 359.996094 30.453125 L 359.996094 75.03125 L 352.460938 75.03125 Z M 352.460938 30.453125 "/>
<path style=" stroke:none;fill-rule:nonzero;fill:rgb(94.901961%,94.901961%,94.901961%);fill-opacity:1;" d="M 404.582031 30.453125 L 412.121094 30.453125 L 412.121094 75.03125 L 404.582031 75.03125 Z M 404.582031 30.453125 "/>
<path style=" stroke:none;fill-rule:nonzero;fill:rgb(94.901961%,94.901961%,94.901961%);fill-opacity:1;" d="M 504.214844 30.453125 L 511.753906 30.453125 L 511.753906 75.03125 L 504.214844 75.03125 Z M 504.214844 30.453125 "/>
<path style=" stroke:none;fill-rule:nonzero;fill:rgb(94.901961%,94.901961%,94.901961%);fill-opacity:1;" d="M 549.226562 75.015625 L 556.644531 75.015625 L 542.035156 33.191406 L 541.136719 30.617188 L 534.964844 30.617188 L 534.070312 33.191406 L 519.335938 75.03125 L 526.863281 75.03125 L 529.5 67.78125 L 546.566406 67.613281 Z M 532.203125 60.183594 L 538.015625 44.175781 L 543.785156 60.074219 Z M 532.203125 60.183594 "/>
<path style=" stroke:none;fill-rule:nonzero;fill:rgb(94.901961%,94.901961%,94.901961%);fill-opacity:1;" d="M 456.996094 38.019531 L 456.980469 30.492188 L 419.632812 30.550781 L 419.644531 38.074219 L 435.152344 38.046875 L 435.152344 75.042969 L 442.691406 75.042969 L 442.691406 38.035156 Z M 456.996094 38.019531 "/>
<path style=" stroke:none;fill-rule:nonzero;fill:rgb(94.901961%,94.901961%,94.901961%);fill-opacity:1;" d="M 179.925781 56.460938 L 179.894531 48.910156 L 179.894531 30.453125 L 172.359375 30.453125 L 172.359375 48.9375 L 150.238281 49.019531 L 150.238281 30.453125 L 142.699219 30.453125 L 142.699219 75.03125 L 150.25 75.03125 L 150.238281 56.574219 L 172.359375 56.492188 L 172.359375 75.03125 L 179.894531 75.03125 L 179.894531 56.460938 Z M 179.925781 56.460938 "/>
<path style=" stroke:none;fill-rule:nonzero;fill:rgb(94.901961%,94.901961%,94.901961%);fill-opacity:1;" d="M 261.636719 75.171875 L 261.609375 67.613281 L 239.652344 67.722656 L 239.652344 30.453125 L 232.113281 30.453125 L 232.113281 75.03125 L 232.324219 75.03125 L 232.335938 75.308594 Z M 261.636719 75.171875 "/>
<path style=" stroke:none;fill-rule:nonzero;fill:rgb(94.901961%,94.901961%,94.901961%);fill-opacity:1;" d="M 298.777344 75.171875 L 298.75 67.613281 L 276.796875 67.722656 L 276.796875 30.453125 L 269.257812 30.453125 L 269.257812 75.03125 L 269.460938 75.03125 L 269.476562 75.308594 Z M 298.777344 75.171875 "/>
<path style=" stroke:none;fill-rule:nonzero;fill:rgb(94.901961%,94.901961%,94.901961%);fill-opacity:1;" d="M 0 48.992188 C 0.265625 48.917969 0.519531 48.808594 0.757812 48.675781 C 0.96875 48.546875 1.144531 48.496094 1.324219 48.367188 C 3.976562 47.046875 6.410156 45.320312 8.535156 43.25 C 10.21875 41.636719 11.058594 39.113281 11.058594 35.679688 L 11.058594 18.097656 C 11.058594 12.277344 12.734375 7.800781 16.085938 4.675781 C 19.4375 1.546875 24.085938 -0.0078125 30.03125 0 C 31.410156 0 32.792969 0 34.175781 0.136719 C 35.351562 0.21875 36.523438 0.378906 37.679688 0.621094 L 37.679688 5.9375 L 30.445312 5.9375 C 27.109375 5.730469 23.820312 6.78125 21.222656 8.882812 C 19.011719 10.828125 17.90625 13.828125 17.90625 17.875 L 17.90625 35.167969 C 18.109375 38.527344 17.261719 41.863281 15.480469 44.71875 C 13.507812 47.164062 10.648438 48.722656 7.523438 49.046875 L 7.523438 48.078125 C 10.632812 48.425781 13.472656 50 15.421875 52.453125 C 17.203125 55.308594 18.050781 58.648438 17.855469 62.011719 L 17.855469 82.582031 C 17.855469 86.539062 18.957031 89.503906 21.167969 91.523438 C 23.75 93.660156 27.046875 94.730469 30.390625 94.527344 L 37.640625 94.527344 L 37.640625 99.835938 C 36.632812 100.015625 35.457031 100.183594 34.132812 100.292969 C 32.808594 100.40625 31.371094 100.460938 29.988281 100.460938 C 24.042969 100.460938 19.394531 98.902344 16.042969 95.78125 C 12.691406 92.667969 11.015625 88.191406 11.015625 82.363281 L 11.015625 61.5 C 11.015625 57.957031 10.175781 55.40625 8.492188 53.847656 C 6.253906 52.195312 3.863281 50.757812 1.351562 49.558594 C 1.097656 49.453125 0.847656 49.335938 0.609375 49.199219 C 0.417969 49.097656 0.210938 49.03125 0 48.992188 Z M 0 48.992188 "/>
<path style=" stroke:none;fill-rule:nonzero;fill:rgb(94.901961%,94.901961%,94.901961%);fill-opacity:1;" d="M 601.804688 48.992188 C 601.539062 48.914062 601.277344 48.808594 601.03125 48.675781 C 600.839844 48.546875 600.660156 48.496094 600.480469 48.382812 C 597.835938 47.050781 595.402344 45.324219 593.273438 43.261719 C 591.601562 41.648438 590.757812 39.113281 590.757812 35.695312 L 590.757812 18.109375 C 590.757812 12.28125 589.089844 7.808594 585.746094 4.691406 C 582.410156 1.570312 577.765625 0.015625 571.816406 0.015625 C 570.4375 0.015625 569.054688 0.015625 567.675781 0.152344 C 566.5 0.230469 565.332031 0.390625 564.179688 0.636719 L 564.179688 5.949219 L 571.417969 5.949219 C 574.742188 5.75 578.027344 6.796875 580.628906 8.882812 C 582.824219 10.847656 583.925781 13.84375 583.925781 17.875 L 583.925781 35.183594 C 583.726562 38.539062 584.574219 41.871094 586.355469 44.71875 C 588.300781 47.148438 591.132812 48.707031 594.226562 49.046875 L 594.226562 48.078125 C 591.128906 48.425781 588.292969 50.003906 586.355469 52.453125 C 584.578125 55.308594 583.726562 58.648438 583.925781 62.011719 L 583.925781 82.582031 C 583.925781 86.539062 582.824219 89.515625 580.628906 91.507812 C 578.046875 93.640625 574.753906 94.714844 571.417969 94.511719 L 564.179688 94.511719 L 564.179688 99.824219 C 565.175781 100.003906 566.351562 100.167969 567.675781 100.28125 C 569 100.390625 570.4375 100.445312 571.816406 100.445312 C 577.765625 100.445312 582.410156 98.890625 585.746094 95.769531 C 589.089844 92.652344 590.757812 88.175781 590.757812 82.351562 L 590.757812 61.457031 C 590.757812 57.917969 591.597656 55.367188 593.273438 53.804688 C 595.511719 52.160156 597.898438 50.722656 600.398438 49.515625 C 600.730469 49.367188 600.894531 49.308594 601.15625 49.171875 C 601.363281 49.074219 601.582031 49.015625 601.804688 48.992188 Z M 601.804688 48.992188 "/>
<path style=" stroke:none;fill-rule:nonzero;fill:rgb(94.901961%,94.901961%,94.901961%);fill-opacity:1;" d="M 344.921875 67.476562 L 323.421875 67.476562 L 344.921875 37.882812 L 344.921875 30.453125 L 313.8125 30.453125 L 313.8125 38.007812 L 335.351562 38.007812 L 313.8125 67.476562 L 313.8125 75.03125 L 344.921875 75.03125 Z M 344.921875 67.476562 "/>
<path style=" stroke:none;fill-rule:nonzero;fill:rgb(94.901961%,94.901961%,94.901961%);fill-opacity:1;" d="M 382.808594 30.453125 L 367.621094 30.453125 L 367.621094 75.015625 L 375.175781 75.015625 L 375.175781 56.0625 L 382.878906 56.0625 C 390.886719 56.296875 397.15625 51.910156 397.15625 43.417969 C 397.15625 34.921875 391.246094 30.453125 382.808594 30.453125 Z M 382.53125 48.507812 L 375.078125 48.507812 L 375.078125 38.007812 L 382.53125 38.007812 C 387.679688 38.007812 389.4375 39.695312 389.4375 43.441406 C 389.546875 46.613281 387.679688 48.507812 382.53125 48.507812 Z M 382.53125 48.507812 "/>
<path style=" stroke:none;fill-rule:nonzero;fill:rgb(94.901961%,94.901961%,94.901961%);fill-opacity:1;" d="M 135.132812 67.808594 C 132.773438 68.390625 130.351562 68.683594 127.925781 68.679688 C 119.132812 68.679688 112.003906 61.539062 112.003906 52.730469 C 112.003906 43.917969 119.132812 36.773438 127.925781 36.773438 C 130.351562 36.777344 132.769531 37.058594 135.132812 37.617188 L 135.132812 31.628906 C 132.808594 30.851562 130.375 30.453125 127.925781 30.453125 C 115.648438 30.453125 105.695312 40.425781 105.695312 52.730469 C 105.695312 65.03125 115.648438 75.003906 127.925781 75.003906 C 130.378906 75.003906 132.8125 74.589844 135.132812 73.785156 Z M 135.132812 67.808594 "/>
<path style=" stroke:none;fill-rule:nonzero;fill:rgb(94.901961%,94.901961%,94.901961%);fill-opacity:1;" d="M 488.1875 75.03125 L 496.71875 75.03125 L 485.519531 55.273438 C 490.710938 53.699219 494 49.742188 494 43.417969 C 494 34.964844 488.15625 30.203125 479.722656 30.203125 L 472.015625 30.453125 L 464.546875 30.453125 L 464.546875 75.015625 L 472.101562 75.015625 L 472.101562 56.0625 L 477.347656 56.0625 Z M 472.015625 35.542969 L 476.507812 35.40625 C 481.667969 35.40625 485.230469 38.3125 485.230469 43.472656 C 485.230469 48.632812 481.667969 51.207031 476.507812 51.207031 L 472.015625 51.207031 Z M 472.015625 35.542969 "/>
</g>
</svg>
