<?xml version="1.0" encoding="UTF-8"?>
<svg xmlns="http://www.w3.org/2000/svg" xmlns:xlink="http://www.w3.org/1999/xlink" width="800px" height="134px" viewBox="0 0 800 134" version="1.1">
<g id="surface1">
<path style=" stroke:none;fill-rule:nonzero;fill:rgb(94.901961%,94.901961%,94.901961%);fill-opacity:1;" d="M 100 40.402344 L 85.230469 59.308594 L 70.089844 40.402344 L 60.074219 40.402344 L 60.074219 99.546875 L 70.089844 99.546875 L 70.089844 54.390625 L 85.230469 73.480469 L 100 54.390625 L 100.019531 99.546875 L 110.035156 99.546875 L 110.035156 40.402344 Z M 100 40.402344 "/>
<path style=" stroke:none;fill-rule:nonzero;fill:rgb(94.901961%,94.901961%,94.901961%);fill-opacity:1;" d="M 120.074219 40.402344 L 130.089844 40.402344 L 130.089844 99.546875 L 120.074219 99.546875 Z M 120.074219 40.402344 "/>
<path style=" stroke:none;fill-rule:nonzero;fill:rgb(94.901961%,94.901961%,94.901961%);fill-opacity:1;" d="M 298.421875 50.425781 L 298.421875 40.402344 L 249.101562 40.402344 L 249.101562 99.546875 L 259.121094 99.546875 L 298.421875 99.527344 L 298.421875 89.503906 L 259.121094 89.503906 L 259.121094 74.984375 L 288.402344 74.984375 L 288.402344 64.945312 L 259.121094 64.960938 L 259.121094 50.441406 Z M 298.421875 50.425781 "/>
<path style=" stroke:none;fill-rule:nonzero;fill:rgb(94.901961%,94.901961%,94.901961%);fill-opacity:1;" d="M 468.386719 40.402344 L 478.402344 40.402344 L 478.402344 99.546875 L 468.386719 99.546875 Z M 468.386719 40.402344 "/>
<path style=" stroke:none;fill-rule:nonzero;fill:rgb(94.901961%,94.901961%,94.901961%);fill-opacity:1;" d="M 537.652344 40.402344 L 547.667969 40.402344 L 547.667969 99.546875 L 537.652344 99.546875 Z M 537.652344 40.402344 "/>
<path style=" stroke:none;fill-rule:nonzero;fill:rgb(94.901961%,94.901961%,94.901961%);fill-opacity:1;" d="M 670.054688 40.402344 L 680.074219 40.402344 L 680.074219 99.546875 L 670.054688 99.546875 Z M 670.054688 40.402344 "/>
<path style=" stroke:none;fill-rule:nonzero;fill:rgb(94.901961%,94.901961%,94.901961%);fill-opacity:1;" d="M 729.871094 99.527344 L 739.726562 99.527344 L 720.3125 44.035156 L 719.121094 40.621094 L 710.917969 40.621094 L 709.726562 44.035156 L 690.148438 99.546875 L 700.148438 99.546875 L 703.652344 89.925781 L 726.332031 89.707031 Z M 707.246094 79.847656 L 714.972656 58.609375 L 722.640625 79.703125 Z M 707.246094 79.847656 "/>
<path style=" stroke:none;fill-rule:nonzero;fill:rgb(94.901961%,94.901961%,94.901961%);fill-opacity:1;" d="M 607.304688 50.441406 L 607.285156 40.457031 L 557.652344 40.53125 L 557.667969 50.515625 L 578.273438 50.480469 L 578.273438 99.5625 L 588.292969 99.5625 L 588.292969 50.460938 Z M 607.304688 50.441406 "/>
<path style=" stroke:none;fill-rule:nonzero;fill:rgb(94.901961%,94.901961%,94.901961%);fill-opacity:1;" d="M 239.101562 74.910156 L 239.0625 64.890625 L 239.0625 40.402344 L 229.046875 40.402344 L 229.046875 64.925781 L 199.652344 65.035156 L 199.652344 40.402344 L 189.632812 40.402344 L 189.632812 99.546875 L 199.667969 99.546875 L 199.652344 75.058594 L 229.046875 74.949219 L 229.046875 99.546875 L 239.0625 99.546875 L 239.0625 74.910156 Z M 239.101562 74.910156 "/>
<path style=" stroke:none;fill-rule:nonzero;fill:rgb(94.901961%,94.901961%,94.901961%);fill-opacity:1;" d="M 347.6875 99.730469 L 347.652344 89.707031 L 318.476562 89.851562 L 318.476562 40.402344 L 308.457031 40.402344 L 308.457031 99.546875 L 308.734375 99.546875 L 308.753906 99.914062 Z M 347.6875 99.730469 "/>
<path style=" stroke:none;fill-rule:nonzero;fill:rgb(94.901961%,94.901961%,94.901961%);fill-opacity:1;" d="M 397.046875 99.730469 L 397.007812 89.707031 L 367.835938 89.851562 L 367.835938 40.402344 L 357.816406 40.402344 L 357.816406 99.546875 L 358.089844 99.546875 L 358.109375 99.914062 Z M 397.046875 99.730469 "/>
<path style=" stroke:none;fill-rule:nonzero;fill:rgb(94.901961%,94.901961%,94.901961%);fill-opacity:1;" d="M 0 65 C 0.351562 64.902344 0.691406 64.757812 1.007812 64.578125 C 1.285156 64.410156 1.523438 64.339844 1.761719 64.171875 C 5.285156 62.417969 8.519531 60.128906 11.339844 57.382812 C 13.578125 55.238281 14.695312 51.894531 14.695312 47.339844 L 14.695312 24.011719 C 14.695312 16.289062 16.921875 10.351562 21.375 6.203125 C 25.828125 2.054688 32.007812 -0.0117188 39.910156 0 C 41.742188 0 43.578125 0 45.414062 0.183594 C 46.980469 0.289062 48.535156 0.503906 50.074219 0.824219 L 50.074219 7.875 L 40.457031 7.875 C 36.027344 7.601562 31.65625 8.996094 28.203125 11.785156 C 25.265625 14.367188 23.796875 18.34375 23.796875 23.714844 L 23.796875 46.660156 C 24.066406 51.117188 22.9375 55.542969 20.570312 59.328125 C 17.949219 62.574219 14.148438 64.640625 10 65.074219 L 10 63.789062 C 14.128906 64.25 17.90625 66.335938 20.496094 69.589844 C 22.859375 73.378906 23.988281 77.8125 23.726562 82.273438 L 23.726562 109.566406 C 23.726562 114.816406 25.191406 118.746094 28.128906 121.425781 C 31.5625 124.261719 35.941406 125.683594 40.386719 125.410156 L 50.019531 125.410156 L 50.019531 132.457031 C 48.679688 132.695312 47.121094 132.917969 45.359375 133.0625 C 43.597656 133.210938 41.6875 133.285156 39.851562 133.285156 C 31.949219 133.285156 25.773438 131.214844 21.320312 127.078125 C 16.867188 122.945312 14.640625 117.007812 14.640625 109.273438 L 14.640625 81.59375 C 14.640625 76.894531 13.523438 73.511719 11.285156 71.441406 C 8.308594 69.25 5.132812 67.34375 1.796875 65.75 C 1.460938 65.609375 1.128906 65.453125 0.808594 65.273438 C 0.554688 65.140625 0.28125 65.050781 0 65 Z M 0 65 "/>
<path style=" stroke:none;fill-rule:nonzero;fill:rgb(94.901961%,94.901961%,94.901961%);fill-opacity:1;" d="M 799.742188 65 C 799.386719 64.898438 799.039062 64.757812 798.714844 64.578125 C 798.457031 64.410156 798.21875 64.339844 797.980469 64.191406 C 794.464844 62.421875 791.234375 60.132812 788.402344 57.398438 C 786.183594 55.253906 785.0625 51.894531 785.0625 47.359375 L 785.0625 24.027344 C 785.0625 16.292969 782.84375 10.359375 778.402344 6.222656 C 773.964844 2.085938 767.792969 0.0195312 759.890625 0.0195312 C 758.054688 0.0195312 756.21875 0.0195312 754.386719 0.203125 C 752.824219 0.304688 751.273438 0.519531 749.742188 0.84375 L 749.742188 7.894531 L 759.359375 7.894531 C 763.777344 7.628906 768.140625 9.015625 771.597656 11.785156 C 774.519531 14.390625 775.980469 18.367188 775.980469 23.714844 L 775.980469 46.679688 C 775.714844 51.128906 776.84375 55.550781 779.210938 59.328125 C 781.796875 62.554688 785.558594 64.621094 789.667969 65.074219 L 789.667969 63.789062 C 785.550781 64.25 781.785156 66.339844 779.210938 69.589844 C 776.847656 73.378906 775.71875 77.8125 775.980469 82.273438 L 775.980469 109.566406 C 775.980469 114.816406 774.519531 118.765625 771.597656 121.40625 C 768.167969 124.238281 763.792969 125.660156 759.359375 125.390625 L 749.742188 125.390625 L 749.742188 132.441406 C 751.0625 132.679688 752.625 132.898438 754.386719 133.046875 C 756.148438 133.191406 758.054688 133.265625 759.890625 133.265625 C 767.792969 133.265625 773.964844 131.199219 778.402344 127.0625 C 782.84375 122.925781 785.0625 116.988281 785.0625 109.257812 L 785.0625 81.539062 C 785.0625 76.839844 786.175781 73.457031 788.402344 71.386719 C 791.378906 69.203125 794.546875 67.296875 797.871094 65.695312 C 798.3125 65.496094 798.53125 65.421875 798.878906 65.238281 C 799.152344 65.109375 799.445312 65.03125 799.742188 65 Z M 799.742188 65 "/>
<path style=" stroke:none;fill-rule:nonzero;fill:rgb(94.901961%,94.901961%,94.901961%);fill-opacity:1;" d="M 458.367188 89.523438 L 429.796875 89.523438 L 458.367188 50.257812 L 458.367188 40.402344 L 417.027344 40.402344 L 417.027344 50.425781 L 445.652344 50.425781 L 417.027344 89.523438 L 417.027344 99.546875 L 458.367188 99.546875 Z M 458.367188 89.523438 "/>
<path style=" stroke:none;fill-rule:nonzero;fill:rgb(94.901961%,94.901961%,94.901961%);fill-opacity:1;" d="M 508.714844 40.402344 L 488.53125 40.402344 L 488.53125 99.527344 L 498.570312 99.527344 L 498.570312 74.378906 L 508.808594 74.378906 C 519.449219 74.691406 527.78125 68.871094 527.78125 57.601562 C 527.78125 46.332031 519.925781 40.402344 508.714844 40.402344 Z M 508.347656 64.355469 L 498.441406 64.355469 L 498.441406 50.425781 L 508.347656 50.425781 C 515.191406 50.425781 517.523438 52.664062 517.523438 57.636719 C 517.667969 61.84375 515.191406 64.355469 508.347656 64.355469 Z M 508.347656 64.355469 "/>
<path style=" stroke:none;fill-rule:nonzero;fill:rgb(94.901961%,94.901961%,94.901961%);fill-opacity:1;" d="M 179.578125 89.964844 C 176.445312 90.738281 173.226562 91.125 170 91.121094 C 158.316406 91.121094 148.84375 81.644531 148.84375 69.957031 C 148.84375 58.265625 158.316406 48.789062 170 48.789062 C 173.226562 48.792969 176.4375 49.167969 179.578125 49.910156 L 179.578125 41.960938 C 176.488281 40.929688 173.253906 40.402344 170 40.402344 C 153.683594 40.402344 140.457031 53.632812 140.457031 69.957031 C 140.457031 86.277344 153.683594 99.507812 170 99.507812 C 173.261719 99.507812 176.496094 98.960938 179.578125 97.894531 Z M 179.578125 89.964844 "/>
<path style=" stroke:none;fill-rule:nonzero;fill:rgb(94.901961%,94.901961%,94.901961%);fill-opacity:1;" d="M 648.753906 99.546875 L 660.089844 99.546875 L 645.210938 73.332031 C 652.109375 71.242188 656.476562 65.992188 656.476562 57.601562 C 656.476562 46.386719 648.714844 40.070312 637.503906 40.070312 L 627.265625 40.402344 L 617.339844 40.402344 L 617.339844 99.527344 L 627.375 99.527344 L 627.375 74.378906 L 634.347656 74.378906 Z M 627.265625 47.15625 L 633.230469 46.972656 C 640.089844 46.972656 644.824219 50.828125 644.824219 57.675781 C 644.824219 64.523438 640.089844 67.9375 633.230469 67.9375 L 627.265625 67.9375 Z M 627.265625 47.15625 "/>
</g>
</svg>
