<?xml version="1.0" encoding="UTF-8"?>
<svg xmlns="http://www.w3.org/2000/svg" xmlns:xlink="http://www.w3.org/1999/xlink" width="66px" height="40px" viewBox="0 0 65 40" version="1.1">
<g id="surface1">
<path style=" stroke:none;fill-rule:nonzero;fill:rgb(94.901961%,94.901961%,94.901961%);fill-opacity:1;" d="M 29.3125 12.183594 L 24.988281 17.765625 L 20.554688 12.183594 L 17.621094 12.183594 L 17.621094 29.652344 L 20.558594 29.652344 L 20.554688 16.3125 L 24.988281 21.957031 L 29.3125 16.3125 L 29.316406 29.652344 L 32.25 29.652344 L 32.25 12.183594 Z M 29.3125 12.183594 "/>
<path style=" stroke:none;fill-rule:nonzero;fill:rgb(94.901961%,94.901961%,94.901961%);fill-opacity:1;" d="M 0 19.5 C 0.105469 19.472656 0.203125 19.429688 0.292969 19.371094 C 0.371094 19.324219 0.441406 19.300781 0.511719 19.257812 C 1.546875 18.726562 2.492188 18.039062 3.316406 17.21875 C 3.972656 16.570312 4.296875 15.566406 4.300781 14.207031 L 4.300781 7.207031 C 4.300781 4.886719 4.949219 3.105469 6.25 1.863281 C 7.550781 0.621094 9.359375 0 11.675781 0 C 12.226562 0 12.773438 0.0195312 13.289062 0.0585938 C 13.75 0.0859375 14.210938 0.148438 14.660156 0.25 L 14.660156 2.363281 L 11.835938 2.363281 C 10.300781 2.363281 9.105469 2.753906 8.25 3.535156 C 7.390625 4.3125 6.960938 5.507812 6.964844 7.113281 L 6.964844 14 C 6.964844 15.640625 6.648438 16.90625 6.015625 17.796875 C 5.382812 18.691406 4.363281 19.265625 2.949219 19.523438 L 2.949219 19.140625 C 4.363281 19.398438 5.382812 19.976562 6.015625 20.878906 C 6.648438 21.777344 6.964844 23.046875 6.964844 24.683594 L 6.964844 32.890625 C 6.964844 34.464844 7.390625 35.652344 8.25 36.449219 C 9.105469 37.246094 10.300781 37.640625 11.835938 37.640625 L 14.65625 37.640625 L 14.65625 39.753906 C 14.203125 39.839844 13.742188 39.902344 13.285156 39.9375 C 12.765625 39.980469 12.226562 40.003906 11.671875 40.003906 C 9.355469 40.003906 7.546875 39.382812 6.246094 38.140625 C 4.945312 36.898438 4.296875 35.117188 4.300781 32.800781 L 4.300781 24.480469 C 4.300781 23.070312 3.972656 22.054688 3.320312 21.433594 C 2.664062 20.816406 0.703125 19.808594 0.542969 19.726562 C 0.417969 19.667969 0.351562 19.644531 0.25 19.589844 C 0.171875 19.546875 0.0898438 19.515625 0 19.5 Z M 0 19.5 "/>
<path style=" stroke:none;fill-rule:nonzero;fill:rgb(94.901961%,94.901961%,94.901961%);fill-opacity:1;" d="M 65.046875 19.5 C 64.945312 19.472656 64.84375 19.429688 64.75 19.371094 C 64.671875 19.324219 64.605469 19.300781 64.535156 19.257812 C 63.5 18.726562 62.554688 18.039062 61.730469 17.21875 C 61.078125 16.570312 60.75 15.566406 60.75 14.207031 L 60.75 7.207031 C 60.75 4.886719 60.101562 3.105469 58.800781 1.863281 C 57.503906 0.621094 55.695312 0 53.386719 0 C 52.832031 0 52.292969 0.0195312 51.773438 0.0585938 C 51.316406 0.0859375 50.863281 0.148438 50.417969 0.246094 L 50.417969 2.359375 L 53.226562 2.359375 C 54.757812 2.359375 55.953125 2.75 56.808594 3.53125 C 57.664062 4.308594 58.09375 5.503906 58.09375 7.109375 L 58.09375 13.996094 C 58.09375 15.636719 58.40625 16.902344 59.039062 17.792969 C 59.667969 18.6875 60.6875 19.261719 62.101562 19.519531 L 62.101562 19.136719 C 60.691406 19.390625 59.667969 19.972656 59.039062 20.875 C 58.40625 21.773438 58.09375 23.042969 58.09375 24.679688 L 58.09375 32.886719 C 58.09375 34.460938 57.664062 35.648438 56.808594 36.445312 C 55.953125 37.242188 54.757812 37.640625 53.226562 37.640625 L 50.417969 37.640625 L 50.417969 39.753906 C 50.867188 39.839844 51.320312 39.898438 51.777344 39.9375 C 52.296875 39.980469 52.835938 40.003906 53.390625 40.003906 C 55.703125 40.003906 57.507812 39.382812 58.804688 38.140625 C 60.101562 36.898438 60.753906 35.117188 60.753906 32.800781 L 60.753906 24.480469 C 60.753906 23.070312 61.082031 22.054688 61.734375 21.433594 C 62.386719 20.816406 64.347656 19.808594 64.503906 19.726562 C 64.628906 19.667969 64.699219 19.644531 64.796875 19.589844 C 64.875 19.546875 64.960938 19.515625 65.046875 19.5 Z M 65.046875 19.5 "/>
<path style=" stroke:none;fill-rule:nonzero;fill:rgb(94.901961%,94.901961%,94.901961%);fill-opacity:1;" d="M 47.484375 26.695312 L 39.117188 26.695312 L 47.484375 15.09375 L 47.484375 12.183594 L 35.378906 12.179688 L 35.378906 15.144531 L 43.753906 15.144531 L 35.378906 26.695312 L 35.378906 29.65625 L 47.484375 29.65625 Z M 47.484375 26.695312 "/>
</g>
</svg>
